<svg width="179.375" height="39.688" xmlns="http://www.w3.org/2000/svg" version="1.1">

 <g>
  <title>Layer 1</title>
  <g id="svg_1" aria-label="qiJ1`C" stroke-width="0.92133" fill="#1f2328" transform="matrix(0.72214, 0, 0, 0.72214, 1.4745, 0.73725)">
   <path fill="#ffffff" id="svg_2" d="m28.489,33.467l-6.3161,-0.16195q-2.1774,0 -3.6529,0.16195l-0.10797,0q-0.62982,8.1336 -1.4756,11.247q-0.55784,1.9794 -1.5296,3.509q-1.0617,1.6915 -2.3573,2.6812q-0.6658,0.50385 -1.0617,0.50385q-0.25193,0 -0.25193,-0.25193q0,-0.39588 0.97172,-1.6195q0.43187,-0.53984 0.52185,-0.73778q2.3573,-4.5167 2.3573,-22.529q0,-3.8329 -0.3239,-4.7326q-0.26992,-0.71979 -0.95372,-0.71979q-0.79177,0 -1.4396,0.52185q-0.48586,0.37789 -0.84575,0.37789q-0.17995,0 -0.25193,-0.25193q0,-0.52185 0.95372,-1.5655q1.5116,-1.6555 3.275,-2.0154q0.35989,-0.07198 0.73778,-0.07198q1.2956,0 1.6555,1.4936q0.19794,0.79177 0.21594,2.4113l0.01799,1.4216q1.2956,-1.5475 3.473,-3.1311q3.491,-2.5013 6.1362,-2.5013q2.6092,0 4.1928,1.9794q1.3316,1.6735 1.3316,3.9768q0,3.581 -3.1131,6.928l-0.3419,0.37789l0.50385,0q0.12596,0 0.26992,0q2.9511,0 4.1928,-0.93573q0.55784,-0.41388 0.62982,-0.44987q0.19794,-0.08997 0.41388,-0.08997q0.28792,0 0.28792,0.28792q0,0.48586 -0.84575,1.4216q-1.4576,1.6195 -3.545,2.1414q-1.2776,0.32391 -3.7249,0.32391l0.00006,-0.00083zm-4.0668,-2.8612l2.4653,0.05398q2.8072,0 3.581,-2.7712q0.01799,-0.10797 0.08997,-0.35989q0.17995,-0.73778 0.17995,-1.5116q0,-2.6272 -1.7815,-4.2648q-1.1877,-1.0797 -2.6272,-1.2236q-0.19794,-0.01799 -0.41388,-0.01799q-1.9974,0 -4.0488,1.3496q-2.3933,1.5835 -3.0591,3.9948q-0.16195,0.55784 -0.19794,1.1517q0,0.28792 -0.08997,3.9768l0.37789,-0.03599q2.7712,-0.3419 5.5244,-0.3419l-0.00012,0.00009z"/>
   <path fill="#ffffff" id="svg_3" d="m38.044,27.061q0,-2.5732 1.8894,-5.2545q1.9614,-2.7892 4.8586,-4.0848q1.8894,-0.84575 3.8329,-0.84575q2.5013,0 4.4987,1.4756q2.0334,1.4936 2.5732,4.0128q0.14396,0.6658 0.14396,1.3676q0,3.2211 -3.419,8.3675q-0.93573,1.3856 -4.0668,5.6144q-2.9511,3.9408 -3.8149,5.8483q-0.59383,1.3136 -0.59383,2.2673q0,1.0977 0.62982,1.7815q0.25193,0.28792 0.25193,0.43187q0,0.48586 -0.91773,1.5296q-1.0977,1.2056 -1.8355,1.2056q-0.35989,0 -0.77377,-0.84575q-0.37789,-0.79177 -0.37789,-1.5655q0,-2.1234 2.1594,-5.5784q1.2596,-2.0154 3.7789,-5.3804q4.2108,-5.6144 5.3084,-8.2056q0.64781,-1.5475 0.64781,-2.9511q0,-2.8252 -2.1774,-4.6786q-1.6015,-1.3676 -3.7069,-1.6375q-0.25193,-0.03599 -0.80976,-0.03599q-1.4036,0 -2.7712,0.50385q-1.0077,0.39588 -1.4036,0.97172q-0.88174,1.2596 -0.88174,3.0591q0,1.1517 0.75578,2.0334q0.57583,0.6838 0.6838,0.91773q0.19794,0.37789 0.19794,0.82776q0,0.95372 -0.75578,1.7275q-0.6838,0.7018 -1.6555,0.7018q-1.2416,0 -1.8715,-1.4756q-0.37789,-0.89974 -0.37789,-2.1054l0.00015,-0.00004z"/>
   <path fill="#ffffff" id="svg_4" d="m48.139,4.8017q0,-0.46786 0.91773,-1.4036q1.5116,-1.5835 3.2391,-1.8355q0.26992,-0.05398 0.55784,-0.05398q1.7815,0 2.6272,1.3316q0.46786,0.70179 0.46786,1.6195q0,3.2391 -5.0925,6.0462q-1.8535,1.0257 -5.2545,2.5013q-1.3136,0.57583 -1.5116,0.57583q-0.44987,0 -0.44987,-0.37789q0,-0.46786 1.8894,-1.4936l3.437,-1.8355q3.545,-2.0514 3.9768,-3.6709q0.07198,-0.25193 0.07198,-0.50385q0,-1.0977 -1.4036,-1.5296q-0.46786,-0.14396 -0.82776,-0.14396q-0.79177,0 -1.4756,0.55784q-0.52185,0.43187 -0.93573,0.44987q-0.23393,0 -0.23393,-0.23393l0.00018,0.00017z"/>
   <path fill="#ffffff" id="svg_5" d="m65.45,23.138q1.3496,-1.6195 3.563,-3.2031q3.437,-2.4473 6.1362,-2.4473q2.1594,0 3.7429,1.6375q1.1877,1.2236 1.6735,3.1311q0.19794,0.80976 0.19794,1.7095q0,2.8072 -2.0514,5.6323q-1.7275,2.3753 -3.9948,3.491q-1.3856,0.6838 -2.7892,0.6838q-2.0514,0 -2.5373,-1.2236q-0.12596,-0.32391 -0.12596,-0.71979q0,-1.3676 1.2056,-2.0514q0.59383,-0.3239 1.2056,-0.3239q0.64781,0 1.4396,0.61182q0.77377,0.59383 1.2416,0.6658q0.14396,0.018 0.28792,0.018q1.0437,0 1.7995,-0.52185q0.14396,-0.08997 0.21594,-0.17995q0.97172,-1.3136 1.0797,-3.275l0,-0.25193q0,-2.6272 -1.6555,-4.4087l-0.16195,-0.17995q-1.4216,-1.4216 -3.1851,-1.4216q-2.0694,0 -4.2108,1.4936q-1.6735,1.1517 -2.3933,2.5912q-0.6658,1.3316 -0.71979,3.0051q0,0.23393 0,0.50385q-0.17995,15.403 -3.1851,20.118q-1.0617,1.6915 -2.3573,2.6812q-0.6658,0.50385 -1.0617,0.50385q-0.25193,0 -0.25193,-0.25193q0,-0.39588 0.97172,-1.6195q0.43187,-0.53984 0.52185,-0.73778q2.3573,-4.5167 2.3573,-22.529q0,-3.8329 -0.3239,-4.7326q-0.26992,-0.71979 -0.95372,-0.71979q-0.79177,0 -1.4396,0.52185q-0.48586,0.37789 -0.84575,0.37789q-0.17995,0 -0.25193,-0.25193q0,-0.52185 0.95372,-1.5655q1.5116,-1.6555 3.275,-2.0154q0.35989,-0.07198 0.73778,-0.07198q1.2956,0 1.6555,1.4936q0.19794,0.79177 0.21594,2.4113l0.01822,1.42122z"/>
   <path fill="#ffffff" id="svg_6" d="m83.985,21.447q0,-0.75578 1.2776,-1.9074q1.5296,-1.3856 3.0951,-1.6735q0.28792,-0.05398 0.55784,-0.05398q1.5655,0 1.8355,2.2493q0.05398,0.30591 0.05398,1.3316q0,5.9023 -0.16195,7.1079q-0.3419,2.4113 -2.1774,4.2108q-1.0077,0.98971 -1.7095,1.0617q-0.25193,0 -0.25193,-0.23393q0,-0.01799 0,-0.05398q0,-0.26992 0.35989,-0.77377q0.6838,-0.95372 0.82776,-2.3573q0.08997,-1.2596 0.08997,-6.5321q0,-2.9871 -1.2596,-2.9871q-0.80976,0 -1.4396,0.48586q-0.46786,0.37789 -0.84575,0.39588q-0.25193,0 -0.25193,-0.26992l0.00002,-0.00006z"/>
   <path fill="#ffffff" id="svg_7" d="m86.108,5.4135q0,-0.21594 1.3316,-1.5116q0.91773,-0.89974 1.0977,-0.89974q0.25193,0 1.5475,1.3136q0.88174,0.91773 0.88174,1.0977q0,0.25193 -1.2956,1.5296q-0.93573,0.91773 -1.1337,0.91773q-0.23393,0 -1.5296,-1.3496q-0.89974,-0.91773 -0.89974,-1.0977l0.0001,0.00001zm-3.1311,4.5527q0,-0.25193 1.3496,-1.5475q0.91773,-0.88174 1.0797,-0.88174q0.25193,0 1.5475,1.3316q0.88174,0.91773 0.88174,1.0977q0,0.23393 -1.2596,1.4756q-0.95372,0.95372 -1.1697,0.95372q-0.26992,0 -1.5655,-1.3496q-0.86375,-0.89974 -0.86375,-1.0797l0.00001,-0.00008zm6.2622,0q0,-0.21594 1.3316,-1.5116q0.91773,-0.91773 1.0977,-0.91773q0.26992,0 1.6015,1.3856q0.82776,0.88174 0.82776,1.0437q0,0.25193 -1.3136,1.5296q-0.91773,0.89974 -1.0977,0.89974q-0.30591,0 -1.6555,-1.4396q-0.79177,-0.84575 -0.79177,-0.98971l0.00001,0z"/>
  </g>
  <line stroke-linecap="undefined" stroke-linejoin="undefined" id="svg_8" y2="33.73962" x2="84.92979" y1="5.94838" x1="84.92979" stroke="#ffffff" fill="none"/>
  <text xml:space="preserve" text-anchor="start" font-family="'JetBrains Mono'" font-size="20" id="svg_10" y="27.044" x="96.85662" stroke-width="0" stroke="#000000" fill="#ffffff">schema</text>
 </g>
</svg>